<svg xmlns="http://www.w3.org/2000/svg" version="1.1" xmlns:xlink="http://www.w3.org/1999/xlink" xmlns:svgjs="http://svgjs.dev/svgjs" width="128" height="128" viewBox="0 0 128 128"><g transform="matrix(0.44782608695652176,0,0,0.44782608695652176,35.339245078260866,12.5)"><svg viewBox="0 0 125 225" data-background-color="#000000" preserveAspectRatio="xMidYMid meet" height="230" width="128" xmlns="http://www.w3.org/2000/svg" xmlns:xlink="http://www.w3.org/1999/xlink"><g id="tight-bounds" transform="matrix(1,0,0,1,0,0)"><svg viewBox="0 0 125 225" height="225" width="125"><g><svg></svg></g><g><svg viewBox="0 0 125 225" height="225" width="125"><g><path d="M116.207 81.502c-4.854-8.402-44.013-30.998-53.707-30.998-9.694 0-48.839 22.596-53.707 30.998-4.528 7.82-4.528 54.19 0 62.01 4.868 8.388 44.013 30.984 53.707 30.984 9.694 0 48.853-22.596 53.707-30.998 4.528-7.82 4.528-54.176 0-61.996zM120.891 78.791c-5.649-9.765-46.667-33.709-58.391-33.709-11.724 0-52.742 23.944-58.391 33.709-5.479 9.453-5.479 57.965 0 67.418 5.649 9.765 46.667 33.709 58.391 33.709 11.724 0 52.742-23.944 58.391-33.695 5.479-9.467 5.479-57.979 0-67.432zM117.541 144.279c-4.982 8.615-45.106 31.765-55.041 31.764-9.935 0-50.06-23.163-55.041-31.778-4.641-8.019-4.641-55.538 0-63.558 4.982-8.601 45.106-31.75 55.041-31.75 9.935 0 50.06 23.163 55.041 31.764 4.641 8.019 4.641 55.538 0 63.558z" fill="#48937e" fill-rule="nonzero" stroke="none" stroke-width="1" stroke-linecap="butt" stroke-linejoin="miter" stroke-miterlimit="10" stroke-dasharray="" stroke-dashoffset="0" font-family="none" font-weight="none" font-size="none" text-anchor="none" style="mix-blend-mode: normal" data-fill-palette-color="tertiary"></path></g><g transform="matrix(1,0,0,1,35.4625,81.93395187601958)"><svg viewBox="0 0 54.075 61.132096247960845" height="61.132096247960845" width="54.075"><g><svg viewBox="0 0 54.075 61.132096247960845" height="61.132096247960845" width="54.075"><g><svg viewBox="0 0 54.075 61.132096247960845" height="61.132096247960845" width="54.075"><g id="textblocktransform"><svg viewBox="0 0 54.075 61.132096247960845" height="61.132096247960845" width="54.075" id="textblock"><g><svg viewBox="0 0 54.075 61.132096247960845" height="61.132096247960845" width="54.075"><g transform="matrix(1,0,0,1,0,0)"><svg width="54.075" viewBox="1.35 -34.65 30.65 34.65" height="61.132096247960845" data-palette-color="#000000"><path d="M29.95-34.65L32 0 24.6 0 24.3-13.75Q24.15-18.5 24.15-23L24.15-23Q24.15-26.15 24.2-27.65L24.2-27.65 20.35-3.7 13-3.7 8.95-27.7Q9.05-24.9 9.05-19.9L9.05-19.9Q9.05-15.85 9-13.65L9-13.65 8.7 0 1.35 0 3.45-34.65 13.15-34.65 16.8-10.95 20.1-34.65 29.95-34.65Z" opacity="1" transform="matrix(1,0,0,1,0,0)" fill="#000000" class="wordmark-text-0" data-fill-palette-color="quaternary" id="text-0"></path></svg></g></svg></g></svg></g></svg></g><g></g></svg></g></svg></g></svg></g><defs></defs></svg><rect width="125" height="225" fill="none" stroke="none" visibility="hidden"></rect></g></svg></g></svg>